<svg xmlns="http://www.w3.org/2000/svg" width="117.384" height="48.029" viewBox="0 0 117.384 48.029">
  <g id="Group_30" data-name="Group 30" transform="translate(-613 -893)">
    <g id="cricket" transform="translate(613 893.001)">
      <path id="Path_7" data-name="Path 7" d="M48.029,24.014A23.837,23.837,0,0,1,44.9,35.872c-.281.5-.58.985-.9,1.466a18.249,18.249,0,0,1-1.126,1.54c-.364.472-.762.936-1.167,1.383-.488.53-1,1.035-1.532,1.524-.488.447-1,.878-1.532,1.276-.381.306-.779.588-1.176.861-.621.414-1.251.8-1.9,1.167h-.016a24.159,24.159,0,0,1-3.437,1.54,21.065,21.065,0,0,1-2.675.778,21.368,21.368,0,0,1-2.907.48,1.385,1.385,0,0,1-.182.025c-.77.075-1.54.116-2.327.116A24.015,24.015,0,0,1,0,24.014a24.279,24.279,0,0,1,1.077-7.146,24.615,24.615,0,0,1,1.151-2.956A25.206,25.206,0,0,1,3.52,11.485l.016-.025a23.47,23.47,0,0,1,2.36-3.2,18.865,18.865,0,0,1,1.54-1.607l.016-.016A20.993,20.993,0,0,1,9.887,4.6c.53-.389,1.077-.753,1.631-1.1.58-.348,1.176-.671,1.78-.969a17.393,17.393,0,0,1,1.648-.753h.008c.555-.232,1.118-.439,1.7-.621C17.191.977,17.746.819,18.3.687A24.023,24.023,0,0,1,48.029,24.014Zm0,0" transform="translate(0 0)" fill="#c03a2b"/>
      <g id="Group_29" data-name="Group 29" transform="translate(2.228 0.687)">
        <path id="Path_8" data-name="Path 8" d="M131.766,75.544c-.488.447-1,.878-1.532,1.276a33.494,33.494,0,0,1-29.157-33.289,32.339,32.339,0,0,1,.406-5.175c.53-.389,1.077-.753,1.631-1.1a.784.784,0,0,1,.124.6,31.95,31.95,0,0,0,27.989,37.421.866.866,0,0,1,.538.273Zm0,0" transform="translate(-93.824 -34.446)" fill="#e6e7e8"/>
        <path id="Path_9" data-name="Path 9" d="M428.243,410.161c-.364.472-.762.936-1.167,1.383-.381-.058-.753-.116-1.126-.182a.828.828,0,0,1-.671-.96.7.7,0,0,1,.041-.141.815.815,0,0,1,.919-.53c.521.1,1.043.174,1.573.248a.779.779,0,0,1,.431.182Zm0,0" transform="translate(-387.601 -371.97)" fill="#e6e7e8"/>
        <path id="Path_10" data-name="Path 10" d="M200.122,262.479a.828.828,0,1,0-1.37.93c.621.915,1.3,1.812,2.009,2.664a.828.828,0,1,0,1.271-1.06c-.676-.811-1.319-1.663-1.909-2.533Zm0,0" transform="translate(-182.205 -238.215)" fill="#e6e7e8"/>
        <path id="Path_11" data-name="Path 11" d="M165.619,202.378a32.758,32.758,0,0,0,1.443,3.008.828.828,0,0,0,1.456-.79,31.654,31.654,0,0,1-1.371-2.858.828.828,0,0,0-1.528.64Zm0,0" transform="translate(-152.252 -183.04)" fill="#e6e7e8"/>
        <path id="Path_12" data-name="Path 12" d="M139.523,71.064h.083a.828.828,0,0,0,.745-.9q-.152-1.555-.152-3.171a.816.816,0,0,0-.828-.814.84.84,0,0,0-.828.842c0,1.1.054,2.214.16,3.3A.828.828,0,0,0,139.523,71.064Zm0,0" transform="translate(-127.774 -60.655)" fill="#e6e7e8"/>
        <path id="Path_13" data-name="Path 13" d="M145.282,135.959a33.108,33.108,0,0,0,.816,3.237.828.828,0,0,0,.791.586.851.851,0,0,0,.243-.036.829.829,0,0,0,.55-1.034,31.485,31.485,0,0,1-.775-3.075.828.828,0,1,0-1.624.324Zm0,0" transform="translate(-133.867 -122.995)" fill="#e6e7e8"/>
        <path id="Path_14" data-name="Path 14" d="M297.171,359.1a.828.828,0,0,0,.241,1.146c.93.606,1.9,1.173,2.883,1.683a.828.828,0,0,0,.763-1.47,30.638,30.638,0,0,1-2.736-1.6.829.829,0,0,0-1.15.243Zm0,0" transform="translate(-271.4 -325.756)" fill="#e6e7e8"/>
        <path id="Path_15" data-name="Path 15" d="M243.268,315.55a.828.828,0,0,0,.011,1.171c.789.776,1.628,1.522,2.494,2.218a.83.83,0,1,0,1.043-1.291c-.823-.663-1.621-1.371-2.372-2.108a.828.828,0,0,0-1.175.011Zm0,0" transform="translate(-222.461 -286.411)" fill="#e6e7e8"/>
        <path id="Path_16" data-name="Path 16" d="M358.634,391.205a.828.828,0,0,0,.463,1.077,33.32,33.32,0,0,0,3.161,1.077.81.81,0,0,0,.228.032.828.828,0,0,0,.228-1.625c-1.012-.289-2.023-.634-3-1.023A.828.828,0,0,0,358.634,391.205Zm0,0" transform="translate(-327.166 -354.722)" fill="#e6e7e8"/>
        <path id="Path_17" data-name="Path 17" d="M142.094,19.35c-.083.53-.149,1.068-.207,1.6a.82.82,0,0,1-.82.745h-.083a.839.839,0,0,1-.745-.911c.041-.381.083-.762.141-1.134a17.393,17.393,0,0,1,1.648-.753h.008a.85.85,0,0,1,.058.455Zm0,0" transform="translate(-129.308 -17.81)" fill="#e6e7e8"/>
        <path id="Path_18" data-name="Path 18" d="M25.055,122.176a.822.822,0,0,1,.414.779c-.041.53-.066,1.068-.074,1.606a.833.833,0,0,1-.828.811h-.017a.828.828,0,0,1-.8-.745Zm0,0" transform="translate(-23.746 -111.403)" fill="#e6e7e8"/>
        <path id="Path_19" data-name="Path 19" d="M42.366,253.755a31.741,31.741,0,0,1-1.208-3.223.829.829,0,0,0-1.581.5,33.761,33.761,0,0,0,1.272,3.395.828.828,0,1,0,1.517-.663Zm0,0" transform="translate(-38.058 -227.192)" fill="#e6e7e8"/>
        <path id="Path_20" data-name="Path 20" d="M27.055,180.224a31.959,31.959,0,0,1-.485-3.407.828.828,0,1,0-1.65.145,33.531,33.531,0,0,0,.51,3.583.828.828,0,1,0,1.625-.321Zm0,0" transform="translate(-24.806 -160.22)" fill="#e6e7e8"/>
        <path id="Path_21" data-name="Path 21" d="M174.305,431.579a32.427,32.427,0,0,1-2.9-1.845.828.828,0,0,0-.962,1.348,33.935,33.935,0,0,0,3.054,1.94.828.828,0,1,0,.812-1.443Zm0,0" transform="translate(-156.364 -389.97)" fill="#e6e7e8"/>
        <path id="Path_22" data-name="Path 22" d="M115.532,380.054a.828.828,0,0,0-1.226,1.112,33.808,33.808,0,0,0,2.567,2.547.828.828,0,0,0,1.1-1.237,32.279,32.279,0,0,1-2.442-2.422Zm0,0" transform="translate(-105.63 -344.859)" fill="#e6e7e8"/>
        <path id="Path_23" data-name="Path 23" d="M240.027,467.647a31.878,31.878,0,0,1-3.23-1.177.828.828,0,0,0-.651,1.522,33.361,33.361,0,0,0,3.4,1.242.839.839,0,0,0,.241.036.828.828,0,0,0,.24-1.62Zm0,0" transform="translate(-215.772 -423.342)" fill="#e6e7e8"/>
        <path id="Path_24" data-name="Path 24" d="M71.259,319.253a.829.829,0,1,0-1.436.828,33.807,33.807,0,0,0,1.969,3.037.828.828,0,1,0,1.339-.975,32.168,32.168,0,0,1-1.872-2.891Zm0,0" transform="translate(-65.4 -289.616)" fill="#e6e7e8"/>
        <path id="Path_25" data-name="Path 25" d="M310.94,489.1a21.057,21.057,0,0,1-2.675.778.823.823,0,0,1,.414-1.59c.53.1,1.06.182,1.59.257A.808.808,0,0,1,310.94,489.1Zm0,0" transform="translate(-281.063 -443.156)" fill="#e6e7e8"/>
        <path id="Path_26" data-name="Path 26" d="M63.9,70.711a.815.815,0,0,1,.224.7c-.074.53-.132,1.06-.182,1.606a.828.828,0,0,1-.828.753.232.232,0,0,1-.074-.008.82.82,0,0,1-.745-.894c.016-.182.033-.356.05-.53Zm0,0" transform="translate(-58.67 -64.765)" fill="#e6e7e8"/>
        <path id="Path_27" data-name="Path 27" d="M235.028,419.378a.828.828,0,1,0,.7-1.5,31.693,31.693,0,0,1-2.875-1.52A.828.828,0,0,0,232,417.78,33.8,33.8,0,0,0,235.028,419.378Zm0,0" transform="translate(-212.1 -377.881)" fill="#e6e7e8"/>
        <path id="Path_28" data-name="Path 28" d="M175.926,374.076a.828.828,0,1,0-1.118,1.222,33.579,33.579,0,0,0,2.641,2.178.816.816,0,0,0,.492.166.828.828,0,0,0,.5-1.491A32.247,32.247,0,0,1,175.926,374.076Zm0,0" transform="translate(-160.393 -339.476)" fill="#e6e7e8"/>
        <path id="Path_29" data-name="Path 29" d="M300.126,447.089a32.01,32.01,0,0,1-3.124-.9.828.828,0,1,0-.541,1.565,33.368,33.368,0,0,0,3.288.948.828.828,0,0,0,.377-1.612Zm0,0" transform="translate(-270.359 -404.976)" fill="#e6e7e8"/>
        <path id="Path_30" data-name="Path 30" d="M94.373,263.977a.828.828,0,0,0,.3-1.132,31.668,31.668,0,0,1-1.487-2.9.828.828,0,0,0-1.509.68,33.242,33.242,0,0,0,1.564,3.046.828.828,0,0,0,1.131.3Zm0,0" transform="translate(-85.247 -235.824)" fill="#e6e7e8"/>
        <path id="Path_31" data-name="Path 31" d="M128.886,321.437a.828.828,0,0,0-1.339.972,33.709,33.709,0,0,0,2.147,2.666.828.828,0,1,0,1.236-1.1,32.311,32.311,0,0,1-2.044-2.535Zm0,0" transform="translate(-117.685 -291.688)" fill="#e6e7e8"/>
        <path id="Path_32" data-name="Path 32" d="M61.955,126.174a.706.706,0,0,0,.1-.006.828.828,0,0,0,.728-.917A32.184,32.184,0,0,1,62.566,122a.838.838,0,0,0-.839-.816.828.828,0,0,0-.817.84,33.983,33.983,0,0,0,.221,3.415.828.828,0,0,0,.824.733Zm0,0" transform="translate(-57.423 -110.506)" fill="#e6e7e8"/>
        <path id="Path_33" data-name="Path 33" d="M69.773,191.822a.828.828,0,0,0-.63.987,33.652,33.652,0,0,0,.911,3.3.828.828,0,0,0,.786.567.81.81,0,0,0,.261-.042.828.828,0,0,0,.526-1.047,31.666,31.666,0,0,1-.866-3.138.828.828,0,0,0-.988-.63Zm0,0" transform="translate(-64.866 -174.498)" fill="#e6e7e8"/>
        <path id="Path_34" data-name="Path 34" d="M369.156,463c-.621.414-1.251.8-1.9,1.167h-.017c-.174-.025-.356-.041-.53-.066a.828.828,0,0,1,.215-1.639c.53.066,1.06.116,1.606.157A.789.789,0,0,1,369.156,463Zm0,0" transform="translate(-333.921 -419.761)" fill="#e6e7e8"/>
        <path id="Path_35" data-name="Path 35" d="M178.226,7.618c-.049.538-.091,1.069-.124,1.615a.819.819,0,0,1-.82.778h-.05a.828.828,0,0,1-.778-.869c.016-.447.058-.9.1-1.35.538-.174,1.093-.331,1.648-.464a.832.832,0,0,1,.025.29Zm0,0" transform="translate(-162.128 -7.328)" fill="#e6e7e8"/>
        <path id="Path_36" data-name="Path 36" d="M260.839,266.233a.829.829,0,0,0,1.144-1.2,32.227,32.227,0,0,1-2.359-2.506.828.828,0,1,0-1.265,1.069A33.8,33.8,0,0,0,260.839,266.233Zm0,0" transform="translate(-236.164 -238.311)" fill="#e6e7e8"/>
        <path id="Path_37" data-name="Path 37" d="M377.079,354.819a33.408,33.408,0,0,0,3.354,1.357.818.818,0,0,0,.269.045.828.828,0,0,0,.268-1.611,31.825,31.825,0,0,1-3.187-1.29.828.828,0,1,0-.7,1.5Zm0,0" transform="translate(-343.483 -320.784)" fill="#e6e7e8"/>
        <path id="Path_38" data-name="Path 38" d="M316.131,317.939a.828.828,0,0,0,.861-1.414,32.021,32.021,0,0,1-2.838-1.944.828.828,0,0,0-1.008,1.313A33.747,33.747,0,0,0,316.131,317.939Zm0,0" transform="translate(-285.723 -285.616)" fill="#e6e7e8"/>
        <path id="Path_39" data-name="Path 39" d="M216.286,201.311a33.733,33.733,0,0,0,1.862,3.105.828.828,0,0,0,1.372-.927,31.748,31.748,0,0,1-1.77-2.949.828.828,0,1,0-1.465.774Zm0,0" transform="translate(-198.137 -182.016)" fill="#e6e7e8"/>
        <path id="Path_40" data-name="Path 40" d="M177.22,55.957a.828.828,0,0,0-.782.871,33.781,33.781,0,0,0,.385,3.6.829.829,0,0,0,1.636-.266,32.173,32.173,0,0,1-.367-3.421.828.828,0,0,0-.871-.783Zm0,0" transform="translate(-162.113 -51.395)" fill="#e6e7e8"/>
        <path id="Path_41" data-name="Path 41" d="M188.522,131.33a33.2,33.2,0,0,0,1.151,3.435.828.828,0,1,0,1.539-.61,31.77,31.77,0,0,1-1.094-3.265.828.828,0,0,0-1.6.44Zm0,0" transform="translate(-173.04 -118.759)" fill="#e6e7e8"/>
        <path id="Path_42" data-name="Path 42" d="M450.71,378.16c-.281.5-.58.985-.9,1.466-.447-.074-.886-.166-1.317-.265a.828.828,0,1,1,.364-1.615c.522.116,1.052.215,1.582.306A.654.654,0,0,1,450.71,378.16Zm0,0" transform="translate(-408.039 -342.974)" fill="#e6e7e8"/>
      </g>
      <path id="Path_43" data-name="Path 43" d="M369.149,119.239c-1.864-2.316-4.53-3.263-5.955-2.116s-1.069,3.954.794,6.27,4.53,3.263,5.955,2.116,1.069-3.954-.794-6.27Zm0,0" transform="translate(-328.332 -105.695)" fill="#e64c3c"/>
      <path id="Path_44" data-name="Path 44" d="M291.468,59.728a2.037,2.037,0,1,0,2.03,2.45A2.278,2.278,0,0,0,291.468,59.728Zm0,0" transform="translate(-261.527 -54.067)" fill="#e64c3c"/>
    </g>
    <path id="Path_45" data-name="Path 45" d="M7.922-23.868V0H2.108V-23.868Zm3.23,11.9a12.829,12.829,0,0,1,1.53-6.307,10.935,10.935,0,0,1,4.267-4.318,12.388,12.388,0,0,1,6.2-1.547A11.873,11.873,0,0,1,30.43-21.9a10.777,10.777,0,0,1,4.046,6.12H28.084a5.162,5.162,0,0,0-2.023-2.278,5.688,5.688,0,0,0-2.975-.782,5.553,5.553,0,0,0-4.352,1.87,7.236,7.236,0,0,0-1.666,5,7.236,7.236,0,0,0,1.666,5A5.553,5.553,0,0,0,23.086-5.1a5.688,5.688,0,0,0,2.975-.782A5.162,5.162,0,0,0,28.084-8.16h6.392a10.7,10.7,0,0,1-4.046,6.1A11.935,11.935,0,0,1,23.154.17a12.388,12.388,0,0,1-6.2-1.547,10.965,10.965,0,0,1-4.267-4.3A12.733,12.733,0,0,1,11.152-11.968Zm25.908,0a12.829,12.829,0,0,1,1.53-6.307,10.935,10.935,0,0,1,4.267-4.318,12.388,12.388,0,0,1,6.205-1.547A11.873,11.873,0,0,1,56.338-21.9a10.777,10.777,0,0,1,4.046,6.12H53.992a5.162,5.162,0,0,0-2.023-2.278,5.688,5.688,0,0,0-2.975-.782,5.553,5.553,0,0,0-4.352,1.87,7.236,7.236,0,0,0-1.666,5,7.236,7.236,0,0,0,1.666,5A5.553,5.553,0,0,0,48.994-5.1a5.688,5.688,0,0,0,2.975-.782A5.162,5.162,0,0,0,53.992-8.16h6.392a10.7,10.7,0,0,1-4.046,6.1A11.935,11.935,0,0,1,49.062.17a12.388,12.388,0,0,1-6.205-1.547,10.965,10.965,0,0,1-4.267-4.3A12.733,12.733,0,0,1,37.06-11.968Z" transform="translate(670 929.14)" fill="#fff"/>
  </g>
</svg>
